HIERARCHY
ROOT Hips
{
	OFFSET 0.000000 0.000000 0.000000
	CHANNELS 6 Xposition Yposition Zposition Zrotation Yrotation Xrotation 
	JOINT LowerBack
	{
		OFFSET 0.000000 0.000000 0.000000
		CHANNELS 3 Zrotation Yrotation Xrotation
		JOINT Spine
		{
			OFFSET 0.028270 2.035590 -0.193380
			CHANNELS 3 Zrotation Yrotation Xrotation
			JOINT Spine1
			{
				OFFSET 0.056720 2.048850 -0.042750
				CHANNELS 3 Zrotation Yrotation Xrotation
				JOINT Neck
				{
					OFFSET 0.000000 0.000000 0.000000
					CHANNELS 3 Zrotation Yrotation Xrotation
					JOINT Neck1
					{
						OFFSET -0.054170 1.746240 0.172020
						CHANNELS 3 Zrotation Yrotation Xrotation
						JOINT Head
						{
							OFFSET 0.104070 1.761360 -0.123970
							CHANNELS 3 Zrotation Yrotation Xrotation
							End Site
							{
								OFFSET 0.000000 0.000000 0.000000
							}
						}
					}
				}
				JOINT LeftShoulder
				{
					OFFSET 0.000000 0.000000 0.000000
					CHANNELS 3 Zrotation Yrotation Xrotation
					JOINT LeftArm
					{
						OFFSET 3.362410 1.200890 -0.311210
						CHANNELS 3 Zrotation Yrotation Xrotation
						JOINT LeftForeArm
						{
							OFFSET 4.983000 -0.000000 -0.000000
							CHANNELS 3 Zrotation Yrotation Xrotation
							JOINT LeftHand
							{
								OFFSET 3.483560 -0.000000 -0.000000
								CHANNELS 3 Zrotation Yrotation Xrotation
								JOINT LeftFingerBase
								{
									OFFSET 0.000000 0.000000 0.000000
									CHANNELS 3 Zrotation Yrotation Xrotation
									JOINT LeftHandIndex1
									{
										OFFSET 0.715260 -0.000000 -0.000000
										CHANNELS 3 Zrotation Yrotation Xrotation
										End Site
										{
											OFFSET 0.000000 0.000000 0.000000
										}
									}
								}
								JOINT LThumb
								{
									OFFSET 0.000000 0.000000 0.000000
									CHANNELS 3 Zrotation Yrotation Xrotation
									End Site
									{
										OFFSET 0.000000 0.000000 0.000000
									}
								}
							}
						}
					}
				}
				JOINT RightShoulder
				{
					OFFSET 0.000000 0.000000 0.000000
					CHANNELS 3 Zrotation Yrotation Xrotation
					JOINT RightArm
					{
						OFFSET -3.136600 1.374050 -0.404650
						CHANNELS 3 Zrotation Yrotation Xrotation
						JOINT RightForeArm
						{
							OFFSET -5.241900 -0.000000 -0.000000
							CHANNELS 3 Zrotation Yrotation Xrotation
							JOINT RightHand
							{
								OFFSET -3.444170 -0.000000 -0.000000
								CHANNELS 3 Zrotation Yrotation Xrotation
								JOINT RightFingerBase
								{
									OFFSET 0.000000 0.000000 0.000000
									CHANNELS 3 Zrotation Yrotation Xrotation
									JOINT RightHandIndex1
									{
										OFFSET -0.622530 -0.000000 -0.000000
										CHANNELS 3 Zrotation Yrotation Xrotation
										End Site
										{
											OFFSET 0.000000 0.000000 0.000000
										}
									}
								}
								JOINT RThumb
								{
									OFFSET 0.000000 0.000000 0.000000
									CHANNELS 3 Zrotation Yrotation Xrotation
									End Site
									{
										OFFSET 0.000000 0.000000 0.000000
									}
								}
							}
						}
					}
				}
			}
		}
	}
}
}
MOTION
Frames: 11
Frame Time: 0.008333
1.490486 16.703579 2.544240 -45.268182 -59.356567 39.408649 8.253115 -5.665803 8.497805 1.404461 -5.855500 -1.418842 -4.446510 -5.787499 -0.963920 5.772102 -20.419029 -5.180840 0.418076 0.000291 0.498332 0.000000 0.000000 0.000000 15.034443 2.300498 -2.322177 -44.001143 26.343845 37.622761 -0.221718 -89.289456 -0.000802 -9.484582 -7.316644 0.644341 0.283582 0.240866 0.000000 0.000000 0.000000 0.000000 0.000000 0.000000 0.000000 -3.966588 -17.173852 0.109793 54.599559 -22.861499 31.964564 0.822751 67.274713 0.003506 0.008872 8.522768 -0.000471 0.019156 -0.094032 0.000000 0.000000 0.000000 0.000000 0.000000 0.000000 0.000000 
1.487895 16.661168 2.545543 -45.131139 -59.636478 39.170577 8.310505 -5.681567 8.586406 1.426032 -5.867295 -1.415776 -4.397647 -5.797186 -1.004298 5.619673 -20.271317 -5.089211 0.416894 -0.001352 0.521867 0.000000 0.000000 0.000000 14.983142 2.418524 -2.384400 -44.024052 26.835905 38.011856 -0.215347 -89.656349 -0.001381 -9.514152 -7.325533 0.647199 0.286753 0.239828 0.000000 0.000000 0.000000 0.000000 0.000000 0.000000 0.000000 -4.146529 -17.043061 0.086505 54.863667 -23.535574 32.067096 0.841822 67.036670 0.003483 0.083168 8.590356 0.005218 0.018251 -0.090243 0.000000 0.000000 0.000000 0.000000 0.000000 0.000000 0.000000 
1.486909 16.618771 2.547688 -44.965223 -59.924490 38.941018 8.361526 -5.698385 8.644698 1.446972 -5.881461 -1.418675 -4.348945 -5.809558 -1.042641 5.462013 -20.111121 -4.994100 0.415412 -0.003101 0.546822 0.000000 0.000000 0.000000 14.940346 2.525413 -2.452183 -44.059635 27.364278 38.385018 179.790690 -89.964417 179.998040 -9.533665 -7.333886 0.649257 0.289781 0.238921 0.000000 0.000000 0.000000 0.000000 0.000000 0.000000 0.000000 -4.334359 -16.900779 0.066743 55.184769 -24.218975 32.110631 0.866342 66.735759 0.003493 0.188022 8.673646 0.013405 0.017307 -0.086350 0.000000 0.000000 0.000000 0.000000 0.000000 0.000000 0.000000 
1.488436 16.576414 2.550786 -44.791363 -60.223472 38.733958 8.412881 -5.714724 8.684930 1.468052 -5.896267 -1.424859 -4.301385 -5.822664 -1.078559 5.303749 -19.955405 -4.903918 0.413128 -0.004833 0.570724 0.000000 0.000000 0.000000 14.910240 2.622983 -2.524245 -44.124632 27.929909 38.723527 179.796354 -89.575476 179.997466 -9.537167 -7.344282 0.650518 0.292520 0.238262 0.000000 0.000000 0.000000 0.000000 0.000000 0.000000 0.000000 -4.518903 -16.761349 0.052695 55.545301 -24.885702 32.093704 0.895130 66.393671 0.003540 0.304620 8.748450 0.022595 0.016609 -0.082344 0.000000 0.000000 0.000000 0.000000 0.000000 0.000000 0.000000 
1.493262 16.534282 2.555196 -44.636741 -60.538955 38.579379 8.477494 -5.728330 8.705487 1.491980 -5.909962 -1.435306 -4.254374 -5.834837 -1.112850 5.137670 -19.789398 -4.820550 0.410975 -0.006451 0.593063 0.000000 0.000000 0.000000 14.883793 2.713827 -2.597674 -44.229706 28.536115 39.014306 179.801675 -89.179613 179.996933 -9.525478 -7.354603 0.650682 0.294848 0.237868 0.000000 0.000000 0.000000 0.000000 0.000000 0.000000 0.000000 -4.717067 -16.605449 0.047278 55.975066 -25.540953 31.954960 0.930128 65.998840 0.003644 0.437789 8.838387 0.033186 0.016188 -0.078504 0.000000 0.000000 0.000000 0.000000 0.000000 0.000000 0.000000 
1.502171 16.492640 2.560746 -44.520345 -60.887483 38.484442 8.547933 -5.736317 8.724000 1.516225 -5.918792 -1.445674 -4.209573 -5.841916 -1.144381 4.974713 -19.632964 -4.751937 0.407496 -0.007904 0.611424 0.000000 0.000000 0.000000 14.869435 2.809563 -2.670462 -44.391931 29.172892 39.242224 179.806792 -88.784949 179.996434 -9.496174 -7.369469 0.650052 0.296687 0.237820 0.000000 0.000000 0.000000 0.000000 0.000000 0.000000 0.000000 -4.904708 -16.451492 0.049637 56.442199 -26.152659 31.712745 0.968519 65.586223 0.003807 0.558447 8.911956 0.042881 0.016361 -0.074832 0.000000 0.000000 0.000000 0.000000 0.000000 0.000000 0.000000 
1.515412 16.452169 2.567532 -44.456535 -61.286920 38.472056 8.621602 -5.735072 8.733951 1.540312 -5.919323 -1.457190 -4.166382 -5.840498 -1.172002 4.810739 -19.472951 -4.698066 0.403290 -0.009157 0.625875 0.000000 0.000000 0.000000 14.858187 2.922348 -2.739312 -44.616690 29.830470 39.402278 179.811925 -88.399003 179.995997 -9.453231 -7.388018 0.648930 0.297961 0.238080 0.000000 0.000000 0.000000 0.000000 0.000000 0.000000 0.000000 -5.092267 -16.283751 0.059916 56.968992 -26.721162 31.321893 1.011414 65.148691 0.004056 0.670673 8.994450 0.052079 0.017109 -0.071635 0.000000 0.000000 0.000000 0.000000 0.000000 0.000000 0.000000 
1.533090 16.413539 2.575047 -44.444294 -61.764051 38.536784 8.671721 -5.720895 8.741937 1.557849 -5.906796 -1.467255 -4.126820 -5.825483 -1.193680 4.660160 -19.325993 -4.662182 0.396357 -0.010292 0.635452 0.000000 0.000000 0.000000 14.860875 3.068568 -2.802735 -44.911974 30.489830 39.493036 179.817340 -88.033390 179.995601 -9.400297 -7.414890 0.647716 0.298724 0.238611 0.000000 0.000000 0.000000 0.000000 0.000000 0.000000 0.000000 -5.248973 -16.119935 0.073208 57.516429 -27.222735 30.819897 1.054943 64.724344 0.004385 0.746073 9.062094 0.058386 0.018638 -0.068987 0.000000 0.000000 0.000000 0.000000 0.000000 0.000000 0.000000 
1.554695 16.377731 2.582861 -44.472688 -62.346227 38.679403 8.670740 -5.689551 8.735143 1.562958 -5.876575 -1.477550 -4.092036 -5.792211 -1.207144 4.528786 -19.189678 -4.641808 0.385696 -0.011437 0.641025 0.000000 0.000000 0.000000 14.877020 3.263276 -2.859026 -45.272823 31.132119 39.523635 179.823335 -87.698835 179.995237 -9.343834 -7.452307 0.647111 0.299014 0.239294 0.000000 0.000000 0.000000 0.000000 0.000000 0.000000 0.000000 -5.362836 -15.958705 0.084842 58.076896 -27.654264 30.211465 1.097633 64.326017 0.004799 0.781295 9.123373 0.061495 0.020896 -0.067105 0.000000 0.000000 0.000000 0.000000 0.000000 0.000000 0.000000 
1.579442 16.345868 2.590376 -44.518382 -63.060302 38.887614 8.583344 -5.637122 8.698960 1.548051 -5.824070 -1.489984 -4.064067 -5.736067 -1.210141 4.427347 -19.069953 -4.633898 0.369403 -0.012796 0.643661 0.000000 0.000000 0.000000 14.910307 3.518402 -2.907566 -45.690532 31.736568 39.508507 179.830132 -87.407262 179.994882 -9.291148 -7.503047 0.647916 0.298925 0.239957 0.000000 0.000000 0.000000 0.000000 0.000000 0.000000 0.000000 -5.409885 -15.808915 0.088272 58.621807 -28.011480 29.533854 1.136489 63.979289 0.005290 0.765517 9.173555 0.060311 0.023861 -0.066120 0.000000 0.000000 0.000000 0.000000 0.000000 0.000000 0.000000 
1.606081 16.319269 2.597500 -44.565704 -63.920614 39.177790 8.392381 -5.559841 8.591345 1.510149 -5.746128 -1.512621 -4.043996 -5.654355 -1.199592 4.356091 -18.960879 -4.632344 0.346545 -0.014578 0.645585 0.000000 0.000000 0.000000 14.946908 3.842765 -2.947798 -46.144993 32.285189 39.468616 179.837716 -87.169235 179.994537 -9.250534 -7.566144 0.650430 0.298466 0.240368 0.000000 0.000000 0.000000 0.000000 0.000000 0.000000 0.000000 -5.386228 -15.667606 0.078857 59.147995 -28.301837 28.793179 1.171570 63.683602 0.005852 0.712843 9.231385 0.056131 0.027337 -0.066189 0.000000 0.000000 0.000000 0.000000 0.000000 0.000000 0.000000 
